<?xml version="1.0" standalone="no"?>
<!DOCTYPE svg PUBLIC "-//W3C//DTD SVG 20010904//EN"
 "http://www.w3.org/TR/2001/REC-SVG-20010904/DTD/svg10.dtd">
<svg version="1.0" xmlns="http://www.w3.org/2000/svg"
 width="810.000000pt" height="280.000000pt" viewBox="0 0 810.000000 280.000000"
 preserveAspectRatio="xMidYMid meet">

<g transform="translate(0.000000,280.000000) scale(0.100000,-0.100000)"
fill="#000000" stroke="none">
<path d="M6618 2162 c-33 -32 -36 -74 -12 -145 19 -55 32 -69 26 -26 -5 34 15
40 41 11 26 -28 22 -55 -5 -47 -18 5 -15 -2 16 -30 54 -48 92 -48 112 1 24 56
17 67 -41 68 -58 1 -115 30 -96 49 6 6 41 11 79 12 l67 0 3 40 c2 27 10 46 25
57 30 23 16 32 -27 18 -30 -9 -39 -9 -58 4 -36 26 -98 20 -130 -12z"/>
<path d="M3926 2020 c-52 -33 -57 -63 -30 -158 13 -43 27 -66 57 -92 49 -43
76 -59 100 -60 23 0 58 58 55 90 -3 22 -7 25 -40 22 -47 -4 -121 32 -116 56 3
13 12 16 38 13 19 -3 55 -5 80 -5 l45 -1 3 40 c2 29 10 46 29 62 35 29 25 37
-27 23 -38 -10 -45 -9 -64 9 -28 26 -90 27 -130 1z m44 -184 c39 -42 9 -69
-37 -33 -17 13 -17 57 0 57 8 0 24 -11 37 -24z"/>
<path d="M6730 2033 c1 -18 18 -35 24 -24 4 6 1 11 -6 11 -9 0 -9 3 2 10 13 8
12 10 -2 10 -10 0 -18 -3 -18 -7z"/>
<path d="M6185 1960 c-3 -6 -8 -29 -9 -53 -2 -23 -22 -99 -45 -169 -22 -70
-41 -133 -41 -141 0 -8 59 -32 166 -66 188 -60 166 -61 297 17 42 25 77 52 77
60 0 19 -12 13 -109 -47 -45 -28 -81 -48 -81 -45 0 3 12 44 26 90 22 71 33 90
67 120 74 62 152 70 181 16 14 -25 15 -25 16 -5 0 41 -25 53 -115 53 -83 0
-109 10 -86 33 26 26 6 38 -151 88 -90 28 -168 54 -174 56 -7 2 -15 -1 -19 -7z
m152 -211 c-4 -15 0 -23 14 -26 24 -7 20 -27 -7 -32 -10 -2 -24 -10 -30 -19
-15 -20 -34 -7 -27 18 4 14 0 20 -11 20 -9 0 -16 7 -16 15 0 8 9 15 20 15 11
0 23 7 26 15 10 24 37 19 31 -6z"/>
<path d="M4038 1863 c7 -3 16 -2 19 1 4 3 -2 6 -13 5 -11 0 -14 -3 -6 -6z"/>
<path d="M4040 1839 c0 -5 5 -7 10 -4 6 3 10 8 10 11 0 2 -4 4 -10 4 -5 0 -10
-5 -10 -11z"/>
<path d="M413 1736 c-24 -30 -28 -66 -44 -419 -9 -185 -9 -254 -1 -270 7 -12
19 -53 27 -92 9 -38 18 -78 21 -87 5 -15 -1 -18 -35 -18 -46 0 -50 -9 -27 -65
l15 -35 135 0 136 0 0 -36 c0 -75 58 -142 137 -159 92 -19 193 68 193 166 l0
29 460 0 460 0 0 -36 c0 -75 58 -142 137 -159 91 -18 193 68 193 163 l0 27
102 0 103 0 19 38 c14 31 18 59 17 138 -1 55 -6 110 -11 123 -6 16 -46 44
-122 86 -62 34 -124 72 -137 84 -13 11 -74 84 -136 162 -134 167 -161 184
-307 192 l-88 4 0 72 c0 122 65 110 -628 114 l-599 4 -20 -26z m1525 -311 c38
-27 189 -219 194 -247 7 -35 -3 -35 -57 2 -34 23 -42 34 -38 51 5 19 3 18 -22
-7 -17 -17 -28 -39 -29 -58 l-2 -31 -109 4 c-61 1 -113 5 -116 7 -3 2 -9 35
-13 73 -8 87 -12 98 -42 105 -21 6 -24 12 -24 55 0 26 3 51 7 54 3 4 56 7 117
7 84 0 117 -4 134 -15z m-890 -37 c3 -37 4 -38 43 -38 38 0 40 -2 37 -27 -3
-24 -8 -28 -40 -31 -35 -3 -37 -5 -40 -40 -3 -32 -7 -37 -30 -40 -27 -3 -28
-1 -28 37 l0 41 -40 0 c-38 0 -40 2 -40 30 0 28 2 30 40 30 l40 0 0 41 c0 38
1 40 28 37 23 -3 27 -8 30 -40z m1297 -326 l80 -27 3 -47 c3 -47 2 -48 -25
-47 -15 0 -50 6 -78 12 -43 10 -52 17 -66 47 -9 19 -20 47 -23 63 -8 35 3 34
109 -1z m-1472 -283 c36 -39 36 -79 0 -118 -60 -64 -163 -29 -163 56 0 46 15
72 53 89 42 18 76 10 110 -27z m1251 -1 c24 -26 27 -37 22 -66 -13 -81 -108
-114 -161 -56 -45 48 -30 124 28 149 42 18 76 10 111 -27z"/>
<path d="M1761 1407 c-12 -12 -15 -50 -4 -60 3 -4 12 -2 19 4 8 6 20 9 28 6
16 -7 31 8 38 38 4 18 0 21 -32 22 -20 1 -42 -3 -49 -10z"/>
<path d="M1792 1325 c2 -12 12 -21 26 -23 17 -3 22 1 22 20 0 18 -6 23 -25 23
-20 0 -25 -5 -23 -20z"/>
<path d="M766 754 c-33 -32 -8 -84 39 -84 15 0 31 10 41 25 15 23 15 27 0 50
-19 29 -56 33 -80 9z"/>
<path d="M2016 755 c-34 -34 -6 -89 43 -83 35 4 56 45 37 73 -17 26 -59 31
-80 10z"/>
<path d="M7106 1515 c4 -8 8 -15 10 -15 2 0 4 7 4 15 0 8 -4 15 -10 15 -5 0
-7 -7 -4 -15z"/>
<path d="M7060 1474 c0 -23 1 -24 16 -10 8 9 12 20 9 26 -12 19 -25 10 -25
-16z"/>
<path d="M7113 1472 c20 -22 21 -34 5 -50 -9 -9 -16 -8 -30 5 -10 9 -20 14
-22 12 -5 -5 8 -88 25 -163 13 -57 13 -58 -11 -77 -14 -10 -37 -27 -52 -39
-16 -12 -33 -42 -43 -73 -10 -28 -31 -78 -47 -109 -27 -51 -34 -57 -71 -63
-33 -6 -43 -4 -54 11 -12 17 -14 17 -34 -5 -12 -13 -27 -20 -36 -17 -9 4 -21
0 -27 -8 -11 -15 -76 -33 -76 -21 0 8 78 122 88 129 4 2 8 -8 7 -22 0 -24 4
-27 40 -30 l40 -3 27 73 c38 100 68 215 68 258 0 54 -20 73 -125 119 -96 42
-96 42 -138 27 -33 -13 -181 -35 -231 -36 -5 0 -6 -13 -2 -30 4 -24 2 -30 -12
-30 -44 0 -57 -60 -19 -84 12 -8 53 -20 92 -27 117 -20 161 -84 118 -174 -9
-19 -19 -35 -22 -35 -3 0 -21 38 -39 85 -19 47 -38 85 -43 85 -12 0 -11 -27 1
-50 8 -16 5 -29 -17 -62 -15 -24 -28 -44 -29 -46 0 -1 -23 8 -50 20 -64 28
-169 30 -238 4 l-49 -19 -19 23 c-20 25 -24 20 -6 -10 11 -17 7 -24 -31 -56
-47 -41 -94 -109 -88 -127 2 -7 13 6 25 29 40 78 147 151 235 160 48 5 35 -2
-52 -30 -65 -21 -118 -68 -157 -139 -26 -46 -29 -62 -29 -137 0 -93 16 -137
76 -204 79 -91 229 -118 341 -63 60 29 134 103 144 144 5 18 12 22 38 20 28
-2 31 1 28 23 -2 14 -8 29 -13 35 -5 5 -9 17 -9 27 0 10 -4 18 -9 18 -20 0
-18 50 4 70 25 24 35 25 35 5 0 -8 7 -15 16 -15 10 0 13 6 9 19 -4 15 1 20 26
25 51 10 79 7 79 -8 0 -8 6 -16 13 -19 8 -3 6 -11 -8 -28 -17 -20 -15 -19 14
4 18 15 36 25 40 22 3 -4 -9 -19 -28 -34 -41 -34 -25 -53 18 -22 79 57 164
181 211 309 21 57 37 77 87 105 12 7 38 -34 53 -86 8 -25 5 -29 -33 -48 -69
-36 -98 -61 -137 -121 -42 -64 -68 -168 -54 -215 6 -23 9 -13 14 47 8 80 37
153 83 202 26 28 114 88 129 88 21 0 4 -19 -31 -35 -96 -43 -164 -153 -164
-265 0 -264 319 -394 506 -207 58 58 82 117 82 207 0 173 -121 295 -292 295
-83 0 -96 10 -25 19 51 7 149 -14 185 -39 31 -22 46 -18 18 5 -35 30 -124 52
-191 48 -32 -1 -61 0 -64 3 -3 3 -12 43 -20 89 -9 50 -21 87 -29 92 -8 4 -20
30 -27 58 -12 48 -11 50 21 95 31 44 32 45 14 65 -10 11 -23 20 -28 20 -6 0
-3 -8 6 -18z m-345 -231 c12 -7 9 -49 -6 -74 -3 -7 -42 65 -42 79 0 7 35 4 48
-5z m-219 -272 c1 -14 -1 -28 -4 -31 -5 -5 -85 67 -85 76 0 3 10 22 22 42 l22
38 22 -50 c13 -27 23 -61 23 -75z m-176 65 c26 -9 50 -21 54 -27 4 -7 0 -8
-13 -2 -10 4 -46 16 -79 26 -38 11 -51 18 -34 18 14 1 46 -6 72 -15z m-108
-63 c7 -19 -6 -171 -15 -171 -5 0 -29 34 -55 76 -38 61 -45 78 -34 85 8 5 19
9 24 9 6 0 5 4 -2 8 -6 4 9 7 33 7 28 0 46 -5 49 -14z m75 9 c65 -19 65 -20
15 -104 -63 -104 -75 -101 -75 19 0 103 -1 102 60 85z m161 -27 c18 -21 32
-43 27 -43 -2 0 -22 19 -43 41 -22 23 -31 37 -20 31 11 -6 27 -18 36 -29z
m865 8 c43 -26 51 -26 33 -3 -13 15 -12 16 3 3 10 -7 16 -17 13 -21 -6 -9 19
-32 27 -25 3 3 13 -5 24 -17 19 -22 19 -22 0 -8 -11 8 -17 11 -15 5 51 -109
59 -161 35 -231 -19 -57 -19 -57 -3 -48 7 4 9 3 4 -2 -5 -5 -14 -9 -19 -9 -6
0 -13 -6 -16 -14 -3 -8 0 -11 7 -7 21 13 11 0 -26 -35 -20 -18 -31 -26 -24
-16 18 23 2 21 -29 -4 -20 -17 -21 -20 -5 -14 11 3 16 3 12 -2 -10 -9 -62 -15
-142 -16 -84 -2 -157 39 -201 111 -49 81 -51 152 -9 256 7 15 5 17 -6 11 -8
-4 -12 -6 -9 -2 3 3 8 5 12 4 11 -3 78 65 72 74 -2 4 1 11 7 15 8 4 9 3 5 -4
-10 -16 -1 -15 33 3 l29 14 15 -57 c28 -100 30 -127 13 -141 -38 -31 -6 -101
45 -101 35 0 59 24 59 58 0 35 -10 49 -41 60 -20 8 -29 24 -48 92 -20 69 -22
83 -10 91 22 15 116 3 155 -20z m-1241 -11 c-3 -5 0 -10 7 -10 22 0 110 -151
97 -166 -34 -41 24 -110 72 -87 24 10 23 11 -11 20 -28 7 -35 14 -35 34 0 21
5 24 38 27 25 2 37 8 37 18 0 19 78 154 89 154 4 0 20 -13 36 -30 15 -16 32
-27 36 -24 4 2 11 -1 15 -7 4 -8 3 -9 -4 -5 -8 5 -10 -3 -5 -26 3 -18 9 -34
13 -36 4 -1 14 -8 23 -15 13 -10 14 -14 2 -24 -11 -10 -17 -10 -29 2 -13 13
-16 13 -30 -1 -9 -8 -16 -20 -16 -25 0 -12 -107 -12 -115 1 -11 17 -35 11 -35
-9 0 -25 12 -29 109 -30 46 -1 87 -3 91 -6 4 -3 10 -16 12 -30 3 -13 2 -22 -2
-20 -4 2 -12 -7 -19 -21 -14 -32 -14 -37 2 -28 7 4 9 3 4 -2 -5 -5 -10 -7 -12
-4 -6 8 -75 -62 -69 -71 2 -4 -1 -11 -7 -15 -8 -5 -9 -3 -4 6 6 10 4 11 -11 5
-98 -41 -155 -43 -230 -9 -59 27 -61 27 -34 4 23 -21 23 -21 2 -9 -13 8 -23
19 -23 24 0 15 -41 55 -50 50 -4 -3 -11 0 -15 6 -4 8 -3 9 4 5 16 -10 15 -5
-8 45 -28 63 -26 143 5 205 30 58 30 60 8 43 -16 -13 -17 -12 -4 3 7 10 17 16
21 13 4 -3 13 2 20 10 7 8 9 15 5 15 -4 0 -2 7 5 15 14 17 24 20 15 5z m345
-25 c13 -14 21 -25 18 -25 -2 0 -15 11 -28 25 -13 14 -21 25 -18 25 2 0 15
-11 28 -25z m620 22 c0 -2 -12 -14 -27 -28 l-28 -24 24 28 c23 25 31 32 31 24z
m427 -199 c-3 -7 -5 -2 -5 12 0 14 2 19 5 13 2 -7 2 -19 0 -25z m-1500 0 c-3
-8 -6 -5 -6 6 -1 11 2 17 5 13 3 -3 4 -12 1 -19z m1076 -214 c18 -14 22 -21
11 -15 -22 11 -84 77 -84 89 0 4 10 -5 21 -20 11 -15 35 -39 52 -54z m-613 33
c0 -2 -10 -12 -22 -23 l-23 -19 19 23 c18 21 26 27 26 19z"/>
<path d="M7429 563 c-13 -16 -12 -17 4 -4 16 13 21 21 13 21 -2 0 -10 -8 -17
-17z"/>
<path d="M6265 750 c-11 -17 5 -32 21 -19 7 6 11 15 8 20 -7 12 -21 11 -29 -1z"/>
<path d="M3300 1250 l0 -230 24 0 c13 0 29 -7 36 -15 10 -12 37 -15 122 -15
l110 0 -32 -26 c-34 -29 -70 -92 -70 -124 0 -16 6 -20 29 -20 l30 0 -15 -35
c-61 -148 79 -326 237 -301 82 13 139 55 177 131 l20 39 14 -49 14 -50 189 -6
190 -6 47 45 46 44 16 -30 c23 -44 90 -98 141 -112 163 -46 320 110 274 270
-7 25 -14 52 -15 61 -4 44 -86 109 -137 109 -11 0 -30 26 -53 73 -49 97 -103
175 -153 220 -60 54 -178 130 -190 122 -17 -10 -13 -55 4 -55 8 0 15 -4 15
-10 0 -5 0 -12 0 -15 1 -2 11 -28 24 -57 49 -112 60 -166 61 -303 0 -126 -1
-132 -32 -195 -48 -98 -44 -95 -95 -72 -25 11 -48 24 -52 30 -3 6 -2 30 3 54
16 74 33 307 26 359 -9 66 -31 85 -124 105 -98 22 -155 22 -211 0 -27 -11 -84
-21 -139 -24 l-94 -5 6 -58 c3 -37 1 -59 -5 -59 -7 0 -9 74 -6 220 l4 220
-218 0 -218 0 0 -230z m230 20 c0 -13 7 -20 20 -20 11 0 20 -7 20 -15 0 -8 -9
-15 -19 -15 -13 0 -21 -8 -23 -22 -2 -13 -10 -23 -18 -23 -8 0 -16 10 -18 23
-2 14 -10 22 -23 22 -10 0 -19 7 -19 15 0 8 9 15 20 15 13 0 20 7 20 20 0 13
7 20 20 20 13 0 20 -7 20 -20z m621 -596 c15 -18 37 -18 71 0 23 12 26 12 21
0 -3 -8 -11 -14 -19 -14 -8 0 -14 -7 -14 -16 0 -12 -7 -15 -30 -12 -16 3 -30
1 -30 -4 0 -5 -10 -8 -22 -6 -29 4 -38 41 -41 158 -2 140 13 146 35 15 10 -59
23 -114 29 -121z m-374 132 c11 -10 -13 -36 -42 -46 -52 -17 -63 -77 -20 -106
49 -32 109 25 84 80 -9 19 -7 29 6 50 10 14 21 26 25 26 15 0 40 -51 46 -92
14 -112 -108 -192 -206 -137 -49 28 -70 66 -70 127 0 40 6 57 26 81 24 29 28
30 86 26 34 -3 63 -7 65 -9z m1029 -21 c25 -38 28 -95 7 -135 -52 -100 -182
-107 -244 -14 -27 42 -24 76 11 109 35 34 59 23 52 -24 -5 -33 25 -71 56 -71
32 0 62 29 62 60 0 34 -31 60 -72 60 -31 0 -47 18 -27 31 8 5 42 9 76 9 55 0
64 -3 79 -25z"/>
<path d="M7003 1428 c2 -7 10 -13 17 -13 7 0 15 6 18 13 2 7 -5 12 -18 12 -13
0 -20 -5 -17 -12z"/>
<path d="M4335 1270 c-4 -6 -3 -16 3 -22 6 -6 12 -6 17 2 4 6 3 16 -3 22 -6 6
-12 6 -17 -2z"/>
<path d="M6027 1103 c-10 -10 -8 -41 3 -48 6 -3 17 1 26 9 12 13 41 16 143 16
147 0 251 9 251 21 0 10 -413 12 -423 2z"/>
<path d="M6645 760 c-3 -5 -2 -10 4 -10 5 0 13 5 16 10 3 6 2 10 -4 10 -5 0
-13 -4 -16 -10z"/>
<path d="M6710 755 c0 -15 18 -40 24 -34 3 3 -1 14 -9 25 -8 10 -14 15 -15 9z"/>
<path d="M6620 726 c0 -9 5 -16 10 -16 6 0 10 4 10 9 0 6 -4 13 -10 16 -5 3
-10 -1 -10 -9z"/>
<path d="M6625 690 c-3 -5 -1 -10 4 -10 6 0 11 5 11 10 0 6 -2 10 -4 10 -3 0
-8 -4 -11 -10z"/>
<path d="M3353 95 c0 -27 2 -38 4 -22 2 15 8 27 13 27 5 0 11 -12 13 -27 4
-26 4 -26 6 5 1 22 -4 32 -13 32 -8 0 -17 8 -19 18 -3 9 -5 -5 -4 -33z"/>
<path d="M3852 95 c0 -27 2 -43 5 -35 3 8 13 24 22 35 15 18 15 19 -1 7 -14
-12 -17 -10 -21 15 -2 16 -4 6 -5 -22z"/>
<path d="M3470 120 c-4 -25 1 -54 10 -63 4 -5 5 3 3 17 -4 19 -1 26 10 26 9 0
17 -10 19 -22 2 -12 9 -23 16 -24 7 -1 8 0 2 3 -12 6 -13 40 -1 45 5 2 3 9 -5
16 -8 7 -14 8 -14 2 0 -14 -27 -13 -33 3 -4 8 -6 8 -7 -3z"/>
<path d="M3699 118 c-2 -25 3 -53 11 -62 5 -5 6 1 3 14 -3 12 -1 25 4 29 7 4
6 11 -3 19 -11 10 -14 10 -15 0z"/>
<path d="M4250 125 c-1 -5 -1 -21 0 -34 1 -13 -4 -28 -12 -32 -9 -6 -3 -9 17
-9 17 0 25 4 18 8 -6 4 -13 23 -16 42 -2 19 -5 31 -7 25z"/>
<path d="M4294 115 c-4 -8 -1 -22 6 -30 6 -8 9 -20 5 -27 -4 -7 1 -4 9 6 9 11
16 25 16 30 1 6 8 -1 16 -16 17 -33 40 -36 49 -8 15 46 -22 81 -44 43 -9 -17
-10 -17 -16 0 -9 21 -34 22 -41 2z m28 -10 c0 -5 -5 -11 -11 -13 -6 -2 -11 4
-11 13 0 9 5 15 11 13 6 -2 11 -8 11 -13z m63 -15 c0 -27 -20 -38 -28 -15 -8
20 3 47 17 42 6 -2 11 -14 11 -27z"/>
<path d="M4417 123 c-3 -5 -4 -21 -3 -38 1 -23 6 -30 21 -30 11 0 20 6 19 13
-1 6 -2 23 -2 37 -2 23 -25 35 -35 18z m23 -13 c0 -5 -4 -10 -10 -10 -5 0 -10
5 -10 10 0 6 5 10 10 10 6 0 10 -4 10 -10z m2 -35 c0 -5 -5 -11 -11 -13 -6 -2
-11 4 -11 13 0 9 5 15 11 13 6 -2 11 -8 11 -13z"/>
<path d="M4487 123 c22 -4 22 -6 8 -33 -22 -42 -17 -51 5 -10 25 46 25 50 -7
49 -24 -2 -25 -2 -6 -6z"/>
<path d="M4534 115 c-4 -8 -1 -22 6 -30 6 -8 9 -19 5 -25 -3 -5 -4 -10 -1 -10
10 0 33 55 29 68 -6 17 -32 15 -39 -3z m28 -10 c0 -5 -5 -11 -11 -13 -6 -2
-11 4 -11 13 0 9 5 15 11 13 6 -2 11 -8 11 -13z"/>
<path d="M4597 123 c-12 -12 -7 -33 7 -33 26 0 28 -20 4 -29 -14 -6 -17 -10
-7 -10 8 -1 20 4 26 10 14 14 6 39 -13 39 -20 0 -17 18 4 23 14 4 14 5 1 6 -9
0 -19 -2 -22 -6z"/>
<path d="M4654 115 c-4 -8 -1 -22 6 -30 6 -8 9 -19 5 -25 -3 -5 -4 -10 -1 -10
10 0 33 55 29 68 -6 17 -32 15 -39 -3z m28 -10 c0 -5 -5 -11 -11 -13 -6 -2
-11 4 -11 13 0 9 5 15 11 13 6 -2 11 -8 11 -13z"/>
<path d="M4717 123 c-12 -12 -7 -33 7 -33 26 0 28 -20 4 -29 -14 -6 -17 -10
-7 -10 8 -1 20 4 26 10 14 14 6 39 -13 39 -20 0 -17 18 4 23 14 4 14 5 1 6 -9
0 -19 -2 -22 -6z"/>
<path d="M4777 123 c-12 -12 -7 -33 7 -33 26 0 28 -20 4 -29 -14 -6 -17 -10
-7 -10 8 -1 20 4 26 10 14 14 6 39 -13 39 -20 0 -17 18 4 23 14 4 14 5 1 6 -9
0 -19 -2 -22 -6z"/>
<path d="M3300 93 c0 -10 4 -14 8 -8 4 6 11 13 16 18 5 4 2 7 -7 7 -10 0 -17
-8 -17 -17z"/>
<path d="M3411 83 c-1 -27 3 -33 19 -33 16 0 20 6 19 33 -2 30 -2 30 -6 5 -6
-36 -20 -36 -26 0 -4 25 -4 25 -6 -5z"/>
<path d="M3557 104 c-13 -13 -7 -24 14 -24 11 0 19 5 17 12 -5 14 -22 21 -31
12z"/>
<path d="M3611 78 c2 -28 2 -29 6 -8 3 14 10 28 17 32 7 5 5 8 -6 8 -14 0 -18
-8 -17 -32z"/>
<path d="M3650 93 c0 -10 4 -14 8 -8 4 6 11 13 16 18 5 4 2 7 -7 7 -10 0 -17
-8 -17 -17z"/>
<path d="M3744 95 c-8 -21 2 -45 20 -45 17 0 28 24 20 45 -4 8 -13 15 -20 15
-8 0 -17 -7 -20 -15z m31 -15 c0 -7 -6 -15 -12 -17 -8 -3 -13 4 -13 17 0 13 5
20 13 18 6 -3 12 -11 12 -18z"/>
<path d="M3804 95 c-8 -20 2 -45 18 -44 10 0 10 2 1 6 -7 2 -13 13 -13 23 0
10 6 21 13 23 9 4 9 6 -1 6 -7 1 -15 -6 -18 -14z"/>
<path d="M3944 95 c-8 -20 2 -45 18 -44 10 0 10 2 1 6 -7 2 -13 13 -13 23 0
10 6 21 13 23 9 4 9 6 -1 6 -7 1 -15 -6 -18 -14z"/>
<path d="M3994 95 c-8 -21 2 -45 20 -45 17 0 28 24 20 45 -4 8 -13 15 -20 15
-8 0 -17 -7 -20 -15z m31 -15 c0 -7 -6 -15 -12 -17 -8 -3 -13 4 -13 17 0 13 5
20 13 18 6 -3 12 -11 12 -18z"/>
<path d="M4051 77 c2 -31 2 -31 6 -4 2 15 8 27 13 27 5 0 11 -12 13 -27 l4
-28 2 28 c0 15 5 27 10 27 5 0 12 -12 14 -27 4 -27 4 -27 6 4 1 29 -1 31 -34
31 -33 0 -35 -2 -34 -31z"/>
<path d="M3312 65 c-11 -12 -10 -15 3 -15 8 0 15 7 15 15 0 18 -2 18 -18 0z"/>
<path d="M3662 65 c-11 -12 -10 -15 3 -15 8 0 15 7 15 15 0 18 -2 18 -18 0z"/>
<path d="M3870 71 c0 -5 5 -13 10 -16 6 -3 10 -2 10 4 0 5 -4 13 -10 16 -5 3
-10 2 -10 -4z"/>
<path d="M3558 58 c5 -5 16 -8 23 -6 8 3 3 7 -10 11 -17 4 -21 3 -13 -5z"/>
</g>
</svg>
