<?xml version="1.0" standalone="no"?>
<!DOCTYPE svg PUBLIC "-//W3C//DTD SVG 20010904//EN"
 "http://www.w3.org/TR/2001/REC-SVG-20010904/DTD/svg10.dtd">
<svg version="1.0" xmlns="http://www.w3.org/2000/svg"
 width="200.000000pt" height="200.000000pt" viewBox="0 0 200.000000 200.000000"
 preserveAspectRatio="xMidYMid meet">

<g transform="translate(0.000000,200.000000) scale(0.100000,-0.100000)"
fill="#000000" stroke="none">
<path d="M1037 1528 c-23 -17 -32 -83 -18 -121 13 -32 31 -27 31 9 0 24 19 35
21 12 0 -7 6 3 12 22 10 28 17 35 39 35 35 0 42 9 21 28 -26 23 -84 31 -106
15z"/>
<path d="M1105 1460 c-3 -5 1 -10 10 -10 9 0 13 5 10 10 -3 6 -8 10 -10 10 -2
0 -7 -4 -10 -10z"/>
<path d="M1027 1264 c-38 -33 -72 -39 -129 -24 -57 14 -70 8 -41 -21 48 -49
150 -31 187 32 23 39 18 43 -17 13z"/>
<path d="M1205 1080 c-3 -5 1 -10 9 -10 9 0 16 5 16 10 0 6 -4 10 -9 10 -6 0
-13 -4 -16 -10z"/>
<path d="M1008 1017 c-12 -4 -27 -6 -34 -3 -10 4 -94 -119 -94 -138 0 -3 35
-6 78 -6 84 0 120 14 109 44 -5 12 0 16 18 16 24 0 25 -2 25 -72 0 -40 3 -97
6 -125 7 -52 7 -53 40 -53 31 0 33 2 39 43 9 67 11 274 2 284 -12 11 -164 20
-189 10z"/>
<path d="M1286 957 c3 -10 9 -15 12 -12 3 3 0 11 -7 18 -10 9 -11 8 -5 -6z"/>
<path d="M642 918 c2 -27 8 -33 36 -40 18 -5 60 -8 94 -6 l60 3 -36 38 c-35
35 -41 37 -97 37 l-60 0 3 -32z"/>
<path d="M1302 900 c0 -14 2 -19 5 -12 2 6 2 18 0 25 -3 6 -5 1 -5 -13z"/>
<path d="M669 841 c-47 -10 -104 -45 -130 -82 -30 -43 -19 -45 20 -3 63 66
170 90 256 56 57 -22 85 -54 95 -109 l8 -38 1 39 c2 63 -52 138 -91 128 -5 -1
-8 2 -8 6 0 11 -103 13 -151 3z"/>
<path d="M1493 716 c-44 -14 -43 -36 1 -36 79 0 119 -88 66 -145 -39 -42 -110
-34 -135 16 -20 38 -19 62 6 93 24 31 14 52 -18 42 -45 -14 -59 -123 -22 -170
42 -53 100 -68 164 -42 132 55 73 283 -62 242z"/>
<path d="M1131 643 c-11 -23 -10 -23 62 -23 l72 1 -40 22 c-53 28 -81 29 -94
0z"/>
<path d="M506 638 c-25 -93 37 -178 129 -178 53 0 125 59 125 101 0 17 9 19
88 19 49 0 91 3 95 6 9 9 -19 34 -39 34 -13 0 -14 3 -4 15 11 13 2 15 -69 17
-44 1 -91 2 -103 2 -16 1 -22 -4 -18 -14 2 -8 4 -32 4 -54 0 -48 -30 -76 -83
-76 -64 0 -96 52 -76 123 6 24 5 27 -18 27 -17 0 -26 -7 -31 -22z"/>
</g>
</svg>
